<?xml version="1.0" encoding="UTF-8"?>
<svg id="Capa_1" data-name="Capa 1" xmlns="http://www.w3.org/2000/svg" viewBox="0 0 19.72 32">
  <defs>
    <style>
      .cls-1 {
        fill: #f494ab;
      }
    </style>
  </defs>
  <path class="cls-1" d="M15.17,0V13.84c-1.82-1.17-4.04-1.76-6.41-1.5C3.71,12.9,0,17.37,0,22.45v8.79c0,.42,.34,.76,.76,.76H9.86c1.95,0,3.77-.57,5.31-1.56,2.73-1.75,4.55-4.82,4.55-8.3V0h-4.55Zm-5.53,27.45h-3.9c-.85,0-1.19-.34-1.19-.76v-4.32c0-2.82,2.1-5.31,4.91-5.52,3.24-.24,5.93,2.45,5.69,5.69-.21,2.81-2.7,4.91-5.52,4.91Z"/>
</svg>